<?xml version="1.0" encoding="utf-8"?>
<!-- Generator: Adobe Illustrator 23.1.0, SVG Export Plug-In . SVG Version: 6.00 Build 0)  -->
<svg version="1.1" id="Layer_1" xmlns="http://www.w3.org/2000/svg" xmlns:xlink="http://www.w3.org/1999/xlink" x="0px" y="0px"
	 viewBox="0 0 30 30" style="enable-background:new 0 0 30 30;" xml:space="preserve">
<style type="text/css">
	.st0{fill-rule:evenodd;clip-rule:evenodd;fill:url(#SVGID_1_);}
</style>
<linearGradient id="SVGID_1_" gradientUnits="userSpaceOnUse" x1="15.6237" y1="10.8029" x2="15.6237" y2="33.8695">
	<stop  offset="0" style="stop-color:#2E7CBF"/>
	<stop  offset="0.5569" style="stop-color:#63CAE5"/>
	<stop  offset="0.8081" style="stop-color:#67C5B6"/>
	<stop  offset="1" style="stop-color:#6AC18F"/>
</linearGradient>
<path class="st0" d="M14.23,20.67v1.48c-0.5-0.15-0.97-0.38-1.4-0.68c-0.24-0.16-0.46-0.35-0.66-0.55l0,0
	c-0.28-0.28-0.53-0.59-0.73-0.94c-0.06-0.11-0.12-0.21-0.18-0.32h0.18h1.4h0.07c0.08,0.1,0.16,0.19,0.25,0.28
	C13.46,20.24,13.82,20.49,14.23,20.67L14.23,20.67z M9.01,12.6V1H7.44v15.87H5.68V1H4.11v15.87c-0.01,0.2-0.02,0.4-0.02,0.6
	c0,0.27,0.01,0.53,0.03,0.8h1.4h1.93c0.05,0.48,0.13,0.95,0.26,1.4c0.38,1.39,1.12,2.62,2.11,3.61l0.22,0.21
	c0.43,0.39,0.89,0.75,1.4,1.04c0.44,0.26,0.91,0.48,1.4,0.66c0.45,0.16,0.91,0.29,1.4,0.37v-1.42c-0.49-0.1-0.95-0.25-1.4-0.45
	c-0.5-0.23-0.97-0.51-1.4-0.84c-0.22-0.17-0.43-0.36-0.63-0.56c-0.28-0.28-0.54-0.59-0.77-0.91c-0.37-0.52-0.66-1.1-0.87-1.71
	c-0.15-0.45-0.26-0.91-0.31-1.4c-0.03-0.26-0.05-0.53-0.05-0.8c0-0.2,0.01-0.4,0.03-0.6c0.04-0.48,0.13-0.95,0.27-1.4
	c0.21-0.69,0.53-1.33,0.93-1.91c0.23-0.33,0.49-0.63,0.77-0.91c0.2-0.2,0.41-0.38,0.63-0.56c0.43-0.33,0.9-0.62,1.4-0.84V9.74V7.72
	V1h-1.4v7.23v2.17c-0.5,0.3-0.97,0.65-1.4,1.04l-0.22,0.21C9.53,11.95,9.26,12.27,9.01,12.6L9.01,12.6z M15.62,5.93
	c0.47,0,0.94,0.03,1.4,0.08c0.47,0.06,0.94,0.14,1.4,0.26c0.48,0.12,0.94,0.27,1.4,0.44c0.48,0.19,0.95,0.41,1.4,0.66
	c0.95,0.52,1.81,1.18,2.57,1.94c1.64,1.64,2.79,3.78,3.21,6.16h-1.42c-0.4-2-1.39-3.79-2.77-5.17C22.31,9.82,21.78,9.38,21.21,9
	c-0.44-0.29-0.91-0.55-1.4-0.77c-0.45-0.2-0.92-0.38-1.4-0.51c-0.45-0.13-0.92-0.23-1.4-0.29c-0.46-0.06-0.92-0.09-1.4-0.09
	c-0.47,0-0.94,0.03-1.4,0.09V6.02C14.68,5.96,15.15,5.93,15.62,5.93L15.62,5.93z M21.43,11.66l-0.22-0.21
	c-0.42-0.39-0.89-0.75-1.4-1.04c-0.44-0.26-0.91-0.48-1.4-0.66c-0.45-0.16-0.91-0.29-1.4-0.37v1.42c0.49,0.1,0.95,0.25,1.4,0.45
	c0.5,0.22,0.97,0.51,1.4,0.84c0.22,0.17,0.43,0.36,0.63,0.56c0.28,0.28,0.54,0.59,0.77,0.91c0.41,0.58,0.72,1.22,0.93,1.91
	c0.14,0.45,0.23,0.91,0.27,1.4c0.02,0.2,0.03,0.4,0.03,0.6c0,0.27-0.01,0.54-0.05,0.8c-0.06,0.48-0.16,0.95-0.31,1.4
	c-0.21,0.62-0.5,1.19-0.87,1.71c-0.23,0.33-0.49,0.63-0.77,0.91c-0.2,0.2-0.41,0.38-0.63,0.56c-0.43,0.33-0.89,0.62-1.4,0.84v1.5
	v2.03v1.44c0.48-0.12,0.94-0.27,1.4-0.44V26.7v-2.17c0.5-0.3,0.97-0.65,1.4-1.04l0.22-0.21c0.99-0.99,1.72-2.23,2.11-3.61
	c0.12-0.45,0.21-0.92,0.26-1.4h1.93h1.4c0.02-0.26,0.03-0.53,0.03-0.8c0-0.2-0.01-0.4-0.02-0.6h-1.4h-1.93
	c-0.04-0.48-0.11-0.94-0.22-1.4C23.22,14.01,22.46,12.7,21.43,11.66L21.43,11.66z M25.52,19.66h1.43c-0.44,2.31-1.57,4.37-3.17,5.96
	c-0.76,0.76-1.62,1.41-2.57,1.94v-1.63c0.57-0.38,1.1-0.81,1.58-1.29C24.13,23.29,25.1,21.58,25.52,19.66L25.52,19.66z M14.23,9.37
	v1.42v1.99c-0.5,0.15-0.97,0.38-1.4,0.68c-0.24,0.16-0.46,0.35-0.66,0.55l0,0c-0.28,0.28-0.53,0.6-0.73,0.94
	c-0.1,0.17-0.19,0.34-0.27,0.52c-0.2,0.43-0.33,0.9-0.39,1.4c-0.02,0.2-0.04,0.4-0.04,0.6c0,0.27,0.02,0.54,0.06,0.8h0.63h0.79h0.61
	h1.4h1.4h1.4h1.4h0.61c-0.15,0.65-0.48,1.22-0.93,1.67c-0.31,0.31-0.67,0.56-1.07,0.73c-0.43,0.19-0.9,0.29-1.4,0.29v1.4v1.93v1.4
	c0.48,0,0.94-0.04,1.4-0.12v-1.42v-1.99c0.5-0.15,0.97-0.38,1.4-0.68c0.24-0.16,0.46-0.35,0.66-0.55l0,0
	c0.28-0.28,0.53-0.59,0.73-0.94c0.06-0.11,0.12-0.21,0.18-0.32c0.22-0.43,0.37-0.9,0.45-1.4c0.04-0.26,0.06-0.53,0.06-0.8
	c0-0.2-0.01-0.4-0.04-0.6h-0.66h-0.75h-0.65h-1.4h-1.4h-1.4h-1.4h-0.65c0.09-0.51,0.29-0.99,0.57-1.4l0.07-0.1
	c0.1-0.13,0.21-0.26,0.32-0.37c0.31-0.31,0.67-0.56,1.07-0.73c0.43-0.19,0.9-0.29,1.4-0.29v-1.4v-1.93v-1.4
	C15.15,9.26,14.68,9.3,14.23,9.37L14.23,9.37z M10.04,25.93c-0.57-0.38-1.1-0.81-1.58-1.29c-1.34-1.34-2.31-3.06-2.73-4.98H4.3
	c0.44,2.31,1.57,4.37,3.17,5.96c0.76,0.76,1.62,1.41,2.57,1.94c0.45,0.25,0.91,0.47,1.4,0.66c0.45,0.18,0.92,0.32,1.4,0.44
	c0.45,0.11,0.92,0.2,1.4,0.26c0.46,0.06,0.92,0.08,1.4,0.08c0.47,0,0.94-0.03,1.4-0.08v-1.41c-0.46,0.06-0.92,0.09-1.4,0.09
	c-0.47,0-0.94-0.03-1.4-0.09c-0.48-0.07-0.94-0.17-1.4-0.29c-0.48-0.14-0.95-0.31-1.4-0.51C10.95,26.48,10.48,26.22,10.04,25.93
	L10.04,25.93z M17.02,12.78v1.48c0.4,0.18,0.77,0.42,1.07,0.73c0.12,0.12,0.22,0.24,0.32,0.37l0.07,0.1h1.32h0.27
	c-0.08-0.18-0.17-0.35-0.27-0.52c-0.2-0.34-0.45-0.66-0.73-0.94l0,0c-0.2-0.2-0.42-0.39-0.66-0.55
	C17.99,13.16,17.52,12.93,17.02,12.78z"/>
</svg>
